<?xml version="1.0" encoding="iso-8859-1"?>
<!-- Generator: Adobe Illustrator 16.0.0, SVG Export Plug-In . SVG Version: 6.00 Build 0)  -->
<!DOCTYPE svg PUBLIC "-//W3C//DTD SVG 1.1//EN" "http://www.w3.org/Graphics/SVG/1.1/DTD/svg11.dtd">
<svg version="1.1" id="Capa_1" xmlns="http://www.w3.org/2000/svg" xmlns:xlink="http://www.w3.org/1999/xlink" x="0px" y="0px"
	 width="48px" height="48px" viewBox="0 0 48 48" style="enable-background:new 0 0 48 48;" xml:space="preserve">
<g>
	<g>
		<g>
			<path d="M24,21.85l-4-2.6l-9.7,9.2c0.2,0.601,0.9,1,1.5,1H35.9c0.8,0,1.3-0.399,1.5-1l-9.4-9.3L24,21.85z"/>
			<path d="M24,20.55l13.3-8.9l0.2-0.4c-0.2-0.5-0.9-0.9-1.5-0.9H11.9c-0.6,0-1.3,0.4-1.5,1l0.2,0.4L24,20.55z"/>
			<polygon points="10.3,12.75 10.3,26.95 19.1,18.55 			"/>
			<polygon points="37.7,26.95 37.7,12.75 28.9,18.55 			"/>
		</g>
		<path d="M41.6,3.65H6.7c-3.7,0-6.7,3-6.7,6.7v21.701c0,3.6,3,6.699,6.7,6.699h9.5v1.801h-3.5c-1,0-1.9,0.899-1.9,1.899
			s0.9,1.899,1.9,1.899h22.6c1,0,1.9-0.899,1.9-1.899s-0.9-1.899-1.9-1.899h-3.5V38.75h9.5c3.601,0,6.7-3,6.7-6.699V10.35
			C48,6.65,45.1,3.65,41.6,3.65z M44.9,25.051v4.299c0,1.801-1.4,3.4-3.4,3.5h-4h-11h-0.1h-4.8h-0.2h-11H6.5
			c-1.9,0-3.4-1.5-3.5-3.299V10.35c0-2,1.6-3.5,3.5-3.5h34.8c2,0,3.5,1.6,3.5,3.5v14.701H44.9z"/>
	</g>
</g>
<g>
</g>
<g>
</g>
<g>
</g>
<g>
</g>
<g>
</g>
<g>
</g>
<g>
</g>
<g>
</g>
<g>
</g>
<g>
</g>
<g>
</g>
<g>
</g>
<g>
</g>
<g>
</g>
<g>
</g>
</svg>
