<?xml version="1.0" encoding="utf-8"?>
<!-- Generator: Adobe Illustrator 16.0.0, SVG Export Plug-In . SVG Version: 6.00 Build 0)  -->
<!DOCTYPE svg PUBLIC "-//W3C//DTD SVG 1.1//EN" "http://www.w3.org/Graphics/SVG/1.1/DTD/svg11.dtd">
<svg version="1.1" id="Layer_1" xmlns="http://www.w3.org/2000/svg" xmlns:xlink="http://www.w3.org/1999/xlink" x="0px" y="0px"
	 width="1300px" height="900px" viewBox="0 0 1300 900" enable-background="new 0 0 1300 900" xml:space="preserve">
<text transform="matrix(0.8801 0 0 1 317.5635 481.0313)" fill="#675C5D" font-family="'Gigi-Regular'" font-size="82.3123">MASTER</text>
<g>
	<line fill="#5C4D4D" x1="286.357" y1="498" x2="606.534" y2="498"/>
	<g>
		<path fill="#5C4D4D" d="M286.357,500.5c40.011,0,80.021,0,120.033,0c58.654,0,117.309,0,175.963,0c8.061,0,16.121,0,24.181,0
			c3.225,0,3.225-5,0-5c-40.011,0-80.021,0-120.033,0c-58.654,0-117.309,0-175.963,0c-8.061,0-16.121,0-24.181,0
			C283.133,495.5,283.133,500.5,286.357,500.5L286.357,500.5z"/>
	</g>
</g>
<ellipse fill="#FCB417" cx="310.064" cy="478.836" rx="5.579" ry="6.117"/>
<ellipse fill="#CB2128" cx="310.102" cy="428.533" rx="5.558" ry="6.117"/>
<ellipse fill="#F16523" cx="268.916" cy="453.888" rx="5.579" ry="6.118"/>
<path fill="#FCB417" d="M283.557,445.916c-3.392,6.83-1.698,15.447,3.696,20.136l-4.593,9.247
	c-4.345-3.516-7.349-8.526-8.778-14.059c1.114-0.698,2.072-1.743,2.743-3.095c1.979-3.982,0.703-9.121-2.849-11.478
	c-0.001,0-0.001,0-0.002-0.001c0.492-2.011,1.204-3.985,2.145-5.88c1.688-3.398,3.941-6.189,6.545-8.31l4.568,8.873
	C285.657,442.553,284.466,444.084,283.557,445.916z"/>
<path fill="#F26423" d="M296.352,438.418c7.305,0,13.334,5.797,14.229,13.294h9.891c-0.51-5.913-2.938-11.244-6.627-15.298
	c-1.157,0.744-2.509,1.172-3.954,1.172c-4.26,0-7.714-3.715-7.714-8.299c0,0,0,0,0-0.001c-1.881-0.492-3.85-0.753-5.876-0.753
	c-3.635,0-7.083,0.841-10.179,2.347l4.702,8.711C292.524,438.835,294.393,438.418,296.352,438.418z"/>
<path fill="#CB2128" d="M296.375,468.95c7.305,0.031,13.353-5.74,14.27-13.233l9.891,0.041c-0.528,5.911-2.974,11.232-6.675,15.271
	c-1.154-0.75-2.505-1.183-3.95-1.188c-4.26-0.018-7.726,3.683-7.74,8.266c0,0.001,0,0.001,0,0.002
	c-1.882,0.483-3.852,0.737-5.878,0.729c-3.635-0.016-7.08-0.871-10.171-2.39l4.729-8.691
	C292.549,468.517,294.415,468.943,296.375,468.95z"/>
</svg>
